# xmcd
#
# Track frame offsets: 
#        182
#        25895
#        46930
#        68647
#        88620
#        108530
#        125032
#        142030
#        164845
#        183747
#
# Disc length: 2637 seconds
#
# Revision: 2
# Processed by: cddbd v1.5.2PL0 Copyright (c) Steve Scherf et al.
# Submitted via: ExactAudioCopy v0.95b3
#
DISCID=940a4b0a
DTITLE=Rymes With Orange - Peel
DYEAR=1992
DGENRE=Alternative
TTITLE0=Marvin
TTITLE1=Memory Fade
TTITLE2=Heroes
TTITLE3=Hold On
TTITLE4=Home House Flower
TTITLE5=Itchycoo Park
TTITLE6=Heaven
TTITLE7=Sky
TTITLE8=Big Time
TTITLE9=In My Life
EXTD=
EXTT0=
EXTT1=
EXTT2=
EXTT3=
EXTT4=
EXTT5=
EXTT6=
EXTT7=
EXTT8=
EXTT9=
PLAYORDER=
